<?xml version="1.0" ?><svg viewBox="0 0 32 32" xmlns="http://www.w3.org/2000/svg"><defs><style>.cls-1{fill:#00c853;}.cls-2{fill:#64dd17;}.cls-3{fill:#76ff03;}.cls-4{fill:#00e676;}</style></defs><title/><g data-name="Layer 3" id="Layer_3"><path class="cls-1" d="M27,13.65A2.1,2.1,0,0,0,26.49,12a2.13,2.13,0,0,0-.8-.55l.06-.25a2.11,2.11,0,0,0-.38-1.57A2.07,2.07,0,0,0,24,8.73a1.83,1.83,0,0,0-.33,0,2.11,2.11,0,0,0-4.07-.66A1.89,1.89,0,0,0,19.25,8a2.07,2.07,0,0,0-1.66.46,2.5,2.5,0,0,1,.4.51,2.84,2.84,0,0,1,.21.46,2.3,2.3,0,0,1-.11,1.69,2.27,2.27,0,0,1,1,1.22s0,.09,0,.09a2.57,2.57,0,0,1,.11.82,2.37,2.37,0,0,1-.21.88,2.36,2.36,0,0,1,1.08,1.3h0v0h0a2.37,2.37,0,0,1-.33,2,2.07,2.07,0,0,1,.54,2h0a.69.69,0,0,1,0,.13l-.12.72a.48.48,0,0,1-.06.18.79.79,0,0,1-.12.15v0l0,.11h0a.43.43,0,0,1,0,.25l-.34,2.06a.6.6,0,0,1-.05.16,1.69,1.69,0,0,1-1.21.88,2.61,2.61,0,0,1-.66,1.94,2,2,0,0,1-.37.34,2.57,2.57,0,0,0,1.14.51l.4,0a2.47,2.47,0,0,0,2.28-1.51A2.5,2.5,0,0,0,22.91,25a2.45,2.45,0,0,0,1-1.6.51.51,0,0,0,0-.17,2.13,2.13,0,0,0,1-1.5,2,2,0,0,0,0-.88,2.12,2.12,0,0,0,.88-3.05A2.1,2.1,0,0,0,26.25,15,1.91,1.91,0,0,0,27,13.65Z"/><path class="cls-2" d="M15.77,27a2.72,2.72,0,0,1-2.34-1.34,2.65,2.65,0,0,1-1.89-.23,2.73,2.73,0,0,1-1.36-1.6,1.33,1.33,0,0,0,0-.19,2.31,2.31,0,0,1-1.4-1.46,2.42,2.42,0,0,1-.1-1A2.31,2.31,0,0,1,7,19.65a2.37,2.37,0,0,1,.1-1.7,2.33,2.33,0,0,1-1.07-1.31,2.37,2.37,0,0,1,.1-1.7,2.3,2.3,0,0,1-1.09-1.3,2.34,2.34,0,0,1,1.09-2.76A2.34,2.34,0,0,1,7.54,7.67,2.41,2.41,0,0,1,8,7.57a2.33,2.33,0,0,1,4.34-1.4,2.43,2.43,0,0,1,.4-.18A2.36,2.36,0,0,1,15.64,7.5a1.37,1.37,0,0,1,.07.29A2.32,2.32,0,0,1,18,8.93a2.84,2.84,0,0,1,.21.46,2.3,2.3,0,0,1-.11,1.69,2.27,2.27,0,0,1,1,1.22s0,.09,0,.09a2.57,2.57,0,0,1,.11.82,2.37,2.37,0,0,1-.21.88,2.36,2.36,0,0,1,1.08,1.3h0v0h0a2.37,2.37,0,0,1-.33,2,2.07,2.07,0,0,1,.54,2h0a.69.69,0,0,1,0,.13l-.12.72a.48.48,0,0,1-.06.18.79.79,0,0,1-.12.15v0l0,.11h0a.43.43,0,0,1,0,.25l-.34,2.06a.6.6,0,0,1-.05.16,1.69,1.69,0,0,1-1.21.88,2.61,2.61,0,0,1-.66,1.94,2.55,2.55,0,0,1-1.23.83A2.8,2.8,0,0,1,15.77,27Zm4-6.82h0Z"/><path class="cls-3" d="M18,18.87h0a3.37,3.37,0,0,0-2.58,1.06,3.05,3.05,0,0,0-.36.55l-.52-1.61a3.33,3.33,0,0,1,3.19-2.17h.07a.5.5,0,0,0,0-1,4.19,4.19,0,0,0-3.69,1.86l-.7-2.16a4,4,0,0,1,4-1.76.5.5,0,0,0,.55-.44.48.48,0,0,0-.43-.55,5,5,0,0,0-4.44,1.62l-.47-1.44a4.83,4.83,0,0,1,3.66-2.06.5.5,0,0,0,.46-.54.51.51,0,0,0-.54-.46,5.88,5.88,0,0,0-3.95,1.92L12,10.85a3.76,3.76,0,0,1,2-2.13.5.5,0,1,0-.44-.9,5,5,0,0,0-2,1.7L11,7.75a.5.5,0,0,0-.63-.32.51.51,0,0,0-.32.63l.57,1.77A4.9,4.9,0,0,0,8,9.62a.49.49,0,0,0-.41.57.5.5,0,0,0,.58.41,3.71,3.71,0,0,1,2.86.56l.28.84A5.9,5.9,0,0,0,7,12.76a.5.5,0,0,0-.16.69.49.49,0,0,0,.42.24.48.48,0,0,0,.26-.07,4.84,4.84,0,0,1,4.18-.48l.46,1.44a5,5,0,0,0-4.55,1.29.51.51,0,0,0,0,.71.53.53,0,0,0,.37.15.48.48,0,0,0,.34-.13,4,4,0,0,1,4.24-.89l.7,2.15a4.31,4.31,0,0,0-4.08.66.5.5,0,0,0-.1.7.51.51,0,0,0,.4.2.55.55,0,0,0,.3-.09,3.29,3.29,0,0,1,3.9-.15l.52,1.6a3.1,3.1,0,0,0-.61-.23,3.37,3.37,0,0,0-2.71.66.5.5,0,1,0,.56.82,2.41,2.41,0,0,1,1.92-.5,2.58,2.58,0,0,1,1.45,1.12l.79,2.46a.51.51,0,0,0,.48.35.4.4,0,0,0,.15,0,.5.5,0,0,0,.33-.63l-.8-2.46a2.58,2.58,0,0,1,.51-1.75A2.38,2.38,0,0,1,18,19.87a.52.52,0,0,0,.49-.52A.5.5,0,0,0,18,18.87Z"/><path class="cls-4" d="M23,21a3,3,0,0,0-2.51-.2,1.66,1.66,0,0,0-.4.2L19.8,22.9a2.23,2.23,0,0,1,1.08-1.15,2.1,2.1,0,0,1,1.7.18A.5.5,0,0,0,23,21Z"/><path class="cls-4" d="M19.72,23.23a1.72,1.72,0,0,1-1.13.86l-.08.52a.49.49,0,0,0,.41.57H19a.49.49,0,0,0,.49-.42l.28-1.69A.66.66,0,0,1,19.72,23.23Z"/><path class="cls-4" d="M25.16,13.06A4,4,0,0,0,21.43,13L21.61,12a3.58,3.58,0,0,1,1.89-.61.5.5,0,0,0,.48-.52.51.51,0,0,0-.52-.48,4.79,4.79,0,0,0-1.65.37l.06-.36a.5.5,0,0,0-1-.16l-.07.42a3.31,3.31,0,0,0-1.69-.52.5.5,0,0,0-.53.47.52.52,0,0,0,.47.53,1.91,1.91,0,0,1,1.55.68l-.22,1.38a2.93,2.93,0,0,0-1.16-.45,2.19,2.19,0,0,1,0,.51,2.74,2.74,0,0,1-.08.5,2.23,2.23,0,0,1,1,.55l-.15.93.09.2h0v0h0a2.37,2.37,0,0,1-.33,2,2.07,2.07,0,0,1,.54,2h0a.69.69,0,0,1,0,.13l0,.16a2.89,2.89,0,0,1,3.36-.38.49.49,0,0,0,.67-.21.49.49,0,0,0-.2-.67,3.83,3.83,0,0,0-3.62-.08l.27-1.62a2.89,2.89,0,0,1,3.37-.38.5.5,0,0,0,.67-.21.5.5,0,0,0-.2-.68A3.86,3.86,0,0,0,21,15.42l.18-1.08a3.07,3.07,0,0,1,3.48-.4.5.5,0,1,0,.47-.88Z"/><path class="cls-4" d="M20.06,20.64l0,.11h0a.43.43,0,0,1,0,.25l.12-.73a.48.48,0,0,1-.06.18.79.79,0,0,1-.12.15Z"/></g></svg>